<?xml version="1.0" encoding="utf-8"?>
<!-- Generator: Adobe Illustrator 24.1.2, SVG Export Plug-In . SVG Version: 6.00 Build 0)  -->
<svg version="1.1" id="Layer_1" xmlns="http://www.w3.org/2000/svg" xmlns:xlink="http://www.w3.org/1999/xlink" x="0px" y="0px"
	 viewBox="0 0 24 24" style="enable-background:new 0 0 24 24;" xml:space="preserve">
<style type="text/css">
	.st0{display:none;}
	.st1{display:inline;}
</style>
<g id="Layer_2_1_">
	<rect x="12" y="14" class="st0" width="2" height="2"/>
	<rect x="16" y="14" class="st0" width="2" height="2"/>
	<path d="M12.9,6.6l-4.2,3L7.9,2H3L1.9,22H22V6.4l-6.9,3.3L12.9,6.6z M4.1,20L4.9,4h1.2l1.8,16H4.1z M20,20H9.9L9,11.8l3.4-2.4
		l2,2.9L20,9.6V20z"/>
</g>
<g id="Layer_5" class="st0">
	<path d="M10.6,16.3L10.6,16.3c-1,0-1.8-0.8-1.9-1.7l-0.1-0.8c-0.1-1,0.7-1.9,1.7-2c0,0,0.1,0,0.1,0h0.1c1,0,1.9,0.8,1.9,1.9
		c0,0,0,0.1,0,0.1l-0.1,0.8C12.4,15.5,11.6,16.3,10.6,16.3z"/>
	<path d="M13.1,13.4L13.1,13.4c-0.1-1.3-1.2-2.2-2.4-2.2h-0.1c-1.4,0-2.5,1.1-2.5,2.5c0,0.1,0,0.1,0,0.2l0,0.8
		c0.1,1.3,1.2,2.3,2.5,2.3c0.1,0,0.2,0,0.3,0c0.4,0,0.7-0.2,1-0.4c0.4-0.3,0.8-0.7,0.9-1.1c0.1-0.2,0.2-0.5,0.2-0.7l0.1-0.8
		C13.1,13.7,13.1,13.6,13.1,13.4z M11.9,13.7l-0.1,0.8c-0.1,0.7-0.7,1.2-1.3,1.1c-0.6,0-1.1-0.5-1.1-1.1l-0.1-0.8
		c0-0.7,0.5-1.3,1.2-1.3c0,0,0.1,0,0.1,0h0.1C11.3,12.4,11.9,13,11.9,13.7C11.9,13.7,11.9,13.7,11.9,13.7L11.9,13.7z"/>
	<path d="M14.3,20.8H6.9c0,0,0-2.6,0.7-3.2c0.5-0.4,1.9-0.6,3.2-0.6c0.4,0,0.8,0,1.2,0.1c-0.1,0.2-0.2,0.4-0.2,0.6
		c-0.2,0.8-0.3,1.7-0.3,2.5h2.7C14.3,20.5,14.3,20.8,14.3,20.8z"/>
	<path d="M14.9,20.2H7.5c0-1,0.2-1.9,0.5-2.2c0.3-0.3,1.4-0.4,2.4-0.4h0.2c0.4,0,0.8,0,1.2,0.1c0.1-0.2,0.1-0.4,0.2-0.6
		c0.1-0.1,0.1-0.2,0.2-0.3c0.1-0.1,0.3-0.2,0.4-0.2c-0.2-0.1-0.5-0.1-0.8-0.1c-0.3,0-0.5-0.1-0.8-0.1c-0.6,0-1.3,0-1.9,0.1
		c-0.9,0.1-1.6,0.3-2,0.6c-0.9,0.8-0.9,3-0.9,3.7v0.6h8.5l0-0.6c0-0.1,0-0.3,0-0.5C14.9,20.3,14.9,20.2,14.9,20.2z"/>
	<path d="M21.3,16.3L21.3,16.3c-1,0-1.8-0.8-1.9-1.7l-0.1-0.8c-0.1-1,0.7-1.9,1.7-2c0,0,0.1,0,0.1,0h0.1c1,0,1.9,0.8,1.9,1.9
		c0,0,0,0.1,0,0.1l-0.1,0.8C23.1,15.5,22.3,16.3,21.3,16.3z"/>
	<path d="M23.1,12c-0.5-0.5-1.1-0.8-1.8-0.8h-0.1c-1.3,0-2.3,1-2.4,2.2c0,0.1,0,0.3,0,0.4l0.1,0.8c0.1,0.8,0.5,1.4,1.1,1.9
		c0.3,0.2,0.7,0.4,1.1,0.4c0.1,0,0.2,0,0.3,0c1.3,0,2.4-1,2.4-2.3l0.1-0.8C23.8,13.1,23.6,12.5,23.1,12z M20.3,12.8
		c0.2-0.3,0.6-0.4,0.9-0.4h0.1c0.7,0,1.3,0.6,1.3,1.3c0,0,0,0.1,0,0.1l0,0.8c0,0.7-0.6,1.2-1.3,1.2c-0.6,0-1.1-0.5-1.2-1.2L20,13.7
		C20,13.4,20.1,13.1,20.3,12.8z"/>
	<path d="M25,20.8h-7.3c0,0,0-0.2,0-0.6h2.7c0-0.8-0.1-1.7-0.3-2.5c-0.1-0.2-0.1-0.4-0.2-0.6c0.4-0.1,0.9-0.1,1.3-0.1
		c1.3,0,2.6,0.2,3.2,0.6C25.1,18.1,25,20.8,25,20.8z"/>
	<path d="M24.6,17.1c-0.4-0.3-1.1-0.5-2-0.6c-0.6-0.1-1.2-0.1-1.8-0.1c-0.3,0-0.6,0-0.9,0.1c-0.3,0-0.6,0.1-0.9,0.2
		c0.2,0.1,0.4,0.2,0.6,0.3c0.1,0.1,0.1,0.1,0.2,0.2c0.1,0.2,0.2,0.4,0.3,0.6c0.4,0,0.7-0.1,1.1-0.1h0.1c1.1,0,2.2,0.2,2.6,0.5
		c0.2,0.2,0.4,1.1,0.4,2.1H17c0,0.3,0,0.5,0,0.6v0.6h8.5l0-0.6c0-0.1,0-0.3,0-0.5C25.6,19.3,25.4,17.7,24.6,17.1z"/>
	<path class="st1" d="M18.3,8.9c-0.6-0.6-1.4-1-2.3-1h-0.1c-1.7,0-3.1,1.4-3.1,3.1c0,0.1,0,0.2,0,0.2l0.1,1.1c0,0.1,0,0.1,0,0.2
		c0,0.3,0.1,0.6,0.2,0.9l0,0c0.3,0.8,1,1.3,1.8,1.6c0.7,0.3,1.4,0.3,2.1,0c0.8-0.3,1.5-0.9,1.8-1.7c0.1-0.3,0.2-0.5,0.2-0.8
		c0-0.1,0-0.1,0-0.2l0.1-1.1C19.2,10.4,18.9,9.6,18.3,8.9z M17.9,11.2l-0.1,1.1c-0.1,1.1-1,1.9-2,1.8c-1-0.1-1.7-0.8-1.8-1.8
		l-0.1-1.1c-0.1-1.1,0.7-2,1.8-2.1c0,0,0.1,0,0.1,0H16c1.1,0,1.9,0.9,1.9,1.9C17.9,11.1,17.9,11.2,17.9,11.2L17.9,11.2z"/>
	<path class="st1" d="M21.3,17.6c0-0.2-0.1-0.4-0.2-0.6L21,16.9c-0.1-0.2-0.2-0.3-0.3-0.5c-0.1-0.1-0.1-0.2-0.2-0.3
		c-0.1-0.1-0.2-0.2-0.3-0.2c-0.1-0.1-0.2-0.1-0.4-0.2c-0.3-0.1-0.6-0.2-0.9-0.3c-0.7-0.2-1.4-0.3-2.1-0.3c-0.7-0.1-1.4-0.1-2.1,0
		c-0.7,0-1.3,0.1-2,0.3c-0.3,0.1-0.6,0.2-0.9,0.3c-0.2,0.1-0.3,0.2-0.5,0.3c-0.1,0.1-0.1,0.1-0.2,0.2c-0.1,0.1-0.1,0.2-0.2,0.3
		c-0.1,0.1-0.2,0.3-0.2,0.4c0,0,0,0.1-0.1,0.1c-0.1,0.2-0.1,0.4-0.2,0.6c-0.2,0.8-0.3,1.7-0.3,2.6c0,0.3,0,0.5,0,0.6l0,0v0.6h11.2
		l0-0.6c0,0,0,0,0,0c0-0.1,0-0.3,0-0.6C21.6,19.3,21.5,18.5,21.3,17.6z M11.6,20.2c0-0.8,0.1-1.7,0.3-2.5c0.1-0.2,0.1-0.4,0.2-0.6
		c0.1-0.1,0.1-0.2,0.2-0.3c0.1-0.1,0.3-0.2,0.4-0.2c0.7-0.3,1.9-0.4,3.1-0.4c1.2,0,2.4,0.1,3.2,0.4c0.2,0.1,0.4,0.2,0.6,0.3
		c0.1,0.1,0.1,0.1,0.2,0.2c0.1,0.2,0.2,0.4,0.2,0.6c0.2,0.8,0.3,1.7,0.3,2.5H11.6z"/>
</g>
</svg>
