<?xml version="1.0" encoding="utf-8"?>
<!-- Generator: Adobe Illustrator 24.1.2, SVG Export Plug-In . SVG Version: 6.00 Build 0)  -->
<svg version="1.1" id="Layer_1" xmlns="http://www.w3.org/2000/svg" xmlns:xlink="http://www.w3.org/1999/xlink" x="0px" y="0px"
	 viewBox="0 0 24 24" style="enable-background:new 0 0 24 24;" xml:space="preserve">
<style type="text/css">
	.st0{display:none;}
	.st1{display:none;fill:#66B8E2;}
	.st2{display:none;fill:#0088CE;}
	.st3{fill:#0088CE;}
</style>
<g id="Layer_2_1_">
	<rect x="12" y="14" class="st0" width="2" height="2"/>
	<rect x="16" y="14" class="st0" width="2" height="2"/>
	<path d="M12.9,6.6l-4.2,3L7.9,2H3L1.9,22H22V6.4l-6.9,3.3L12.9,6.6z M4.1,20L4.9,4h1.2l1.8,16H4.1z M20,20H9.9L9,11.8l3.4-2.4
		l2,2.9L20,9.6V20z"/>
</g>
<g id="Layer_5">
	<path class="st1" d="M12.3,17L12.3,17c-0.5,0-0.8-0.4-0.9-0.8l0-0.4c0-0.5,0.3-0.9,0.8-0.9c0,0,0,0,0.1,0h0.1
		c0.5,0,0.9,0.4,0.9,0.9c0,0,0,0,0,0.1l0,0.4C13.2,16.7,12.8,17,12.3,17z"/>
	<path class="st2" d="M13.5,15.7L13.5,15.7c-0.1-0.6-0.6-1-1.1-1h-0.1c-0.6,0-1.1,0.5-1.1,1.1c0,0,0,0.1,0,0.1l0,0.4
		c0,0.6,0.5,1.1,1.1,1.1c0,0,0.1,0,0.1,0c0.2,0,0.3-0.1,0.5-0.2c0.2-0.1,0.4-0.3,0.4-0.5c0-0.1,0.1-0.2,0.1-0.3l0-0.4
		C13.5,15.8,13.5,15.7,13.5,15.7z M12.9,15.8l0,0.4c0,0.3-0.3,0.6-0.6,0.5c-0.3,0-0.5-0.3-0.5-0.5l0-0.4c0-0.3,0.2-0.6,0.5-0.6
		c0,0,0,0,0,0h0.1C12.7,15.2,12.9,15.5,12.9,15.8C12.9,15.8,12.9,15.8,12.9,15.8L12.9,15.8z"/>
	<path class="st1" d="M14,19.1h-3.4c0,0,0-1.2,0.3-1.5c0.2-0.2,0.9-0.3,1.5-0.3c0.2,0,0.4,0,0.6,0.1c0,0.1-0.1,0.2-0.1,0.3
		c-0.1,0.4-0.1,0.8-0.2,1.2H14C14,19,14,19.1,14,19.1z"/>
	<path class="st2" d="M14.3,18.8h-3.4c0-0.4,0.1-0.9,0.2-1c0.2-0.1,0.6-0.2,1.1-0.2h0.1c0.2,0,0.4,0,0.6,0c0-0.1,0.1-0.2,0.1-0.3
		c0,0,0.1-0.1,0.1-0.1c0.1,0,0.1-0.1,0.2-0.1c-0.1,0-0.2,0-0.4-0.1c-0.1,0-0.2,0-0.4,0c-0.3,0-0.6,0-0.9,0c-0.4,0-0.7,0.1-0.9,0.3
		c-0.4,0.4-0.4,1.4-0.4,1.7v0.3h4l0-0.3C14.3,19.1,14.3,19,14.3,18.8C14.3,18.9,14.3,18.9,14.3,18.8z"/>
	<path class="st1" d="M17.3,17L17.3,17c-0.5,0-0.8-0.4-0.9-0.8l0-0.4c0-0.5,0.3-0.9,0.8-0.9c0,0,0,0,0.1,0h0.1
		c0.5,0,0.9,0.4,0.9,0.9c0,0,0,0,0,0.1l0,0.4C18.2,16.7,17.8,17,17.3,17z"/>
	<path class="st2" d="M18.2,15c-0.2-0.2-0.5-0.4-0.8-0.4h-0.1c-0.6,0-1.1,0.4-1.1,1c0,0.1,0,0.1,0,0.2l0,0.4c0,0.4,0.2,0.7,0.5,0.9
		c0.2,0.1,0.3,0.2,0.5,0.2c0,0,0.1,0,0.1,0c0.6,0,1.1-0.5,1.1-1.1l0-0.4C18.5,15.5,18.4,15.2,18.2,15z M16.9,15.4
		c0.1-0.1,0.3-0.2,0.4-0.2h0.1c0.3,0,0.6,0.3,0.6,0.6c0,0,0,0,0,0l0,0.4c0,0.3-0.3,0.6-0.6,0.5c-0.3,0-0.5-0.3-0.5-0.5l0-0.4
		C16.7,15.7,16.8,15.5,16.9,15.4z"/>
	<path class="st1" d="M19,19.1h-3.4c0,0,0-0.1,0-0.3h1.3c0-0.4,0-0.8-0.1-1.2c0-0.1-0.1-0.2-0.1-0.3c0.2,0,0.4,0,0.6,0
		c0.6,0,1.2,0.1,1.5,0.3C19.1,17.9,19,19.1,19,19.1z"/>
	<path class="st2" d="M18.9,17.4c-0.2-0.1-0.5-0.2-0.9-0.3c-0.3,0-0.6,0-0.9,0c-0.1,0-0.3,0-0.4,0c-0.1,0-0.3,0-0.4,0.1
		c0.1,0,0.2,0.1,0.3,0.1c0,0,0.1,0.1,0.1,0.1c0.1,0.1,0.1,0.2,0.1,0.3c0.2,0,0.3,0,0.5,0h0.1c0.5,0,1,0.1,1.2,0.2
		c0.1,0.1,0.2,0.5,0.2,1h-3.4c0,0.1,0,0.2,0,0.3v0.3h4l0-0.3c0-0.1,0-0.1,0-0.2C19.3,18.4,19.3,17.6,18.9,17.4z"/>
	<path class="st3" d="M15.9,13.6c-0.3-0.3-0.7-0.5-1.1-0.5h-0.1c-0.8,0-1.5,0.7-1.5,1.5c0,0,0,0.1,0,0.1l0,0.5c0,0,0,0.1,0,0.1
		c0,0.1,0.1,0.3,0.1,0.4l0,0c0.2,0.4,0.5,0.6,0.8,0.8c0.3,0.1,0.7,0.1,1,0c0.4-0.1,0.7-0.4,0.9-0.8c0.1-0.1,0.1-0.3,0.1-0.4
		c0,0,0-0.1,0-0.1l0-0.5C16.3,14.3,16.2,13.9,15.9,13.6z M15.8,14.6l0,0.5c0,0.5-0.5,0.9-1,0.8c-0.5,0-0.8-0.4-0.8-0.8l0-0.5
		c0-0.5,0.3-0.9,0.8-1c0,0,0,0,0.1,0h0.1C15.4,13.7,15.8,14.1,15.8,14.6C15.8,14.6,15.8,14.6,15.8,14.6L15.8,14.6z"/>
	<path class="st3" d="M17.3,17.6c0-0.1-0.1-0.2-0.1-0.3l0-0.1c0-0.1-0.1-0.1-0.1-0.2c0,0-0.1-0.1-0.1-0.1c0,0-0.1-0.1-0.1-0.1
		c-0.1,0-0.1-0.1-0.2-0.1c-0.1-0.1-0.3-0.1-0.4-0.1c-0.3-0.1-0.6-0.1-1-0.1c-0.3,0-0.7,0-1,0c-0.3,0-0.6,0.1-0.9,0.1
		c-0.1,0-0.3,0.1-0.4,0.1c-0.1,0-0.2,0.1-0.2,0.1c0,0-0.1,0.1-0.1,0.1c0,0-0.1,0.1-0.1,0.1c0,0.1-0.1,0.1-0.1,0.2c0,0,0,0,0,0.1
		c0,0.1-0.1,0.2-0.1,0.3c-0.1,0.4-0.1,0.8-0.1,1.2c0,0.1,0,0.2,0,0.3l0,0v0.3h5.2l0-0.3c0,0,0,0,0,0c0-0.1,0-0.2,0-0.3
		C17.4,18.4,17.4,18,17.3,17.6z M12.8,18.8c0-0.4,0.1-0.8,0.2-1.2c0-0.1,0.1-0.2,0.1-0.3c0,0,0.1-0.1,0.1-0.1c0.1,0,0.1-0.1,0.2-0.1
		c0.3-0.1,0.9-0.2,1.4-0.2c0.6,0,1.1,0.1,1.5,0.2c0.1,0,0.2,0.1,0.3,0.1c0,0,0.1,0.1,0.1,0.1c0.1,0.1,0.1,0.2,0.1,0.3
		c0.1,0.4,0.1,0.8,0.1,1.2H12.8z"/>
</g>
</svg>
