<?xml version="1.0" encoding="utf-8"?>
<!-- Generator: Adobe Illustrator 24.1.2, SVG Export Plug-In . SVG Version: 6.00 Build 0)  -->
<svg version="1.1" id="Layer_1" xmlns="http://www.w3.org/2000/svg" xmlns:xlink="http://www.w3.org/1999/xlink" x="0px" y="0px"
	 viewBox="0 0 128 128" style="enable-background:new 0 0 128 128;" xml:space="preserve">
<style type="text/css">
	.st0{display:none;fill:#66B8E2;}
	.st1{display:none;fill:#0088CE;}
	.st2{fill:#0088CE;}
</style>
<g id="Layer_5">
	<path class="st0" d="M25.8,75.8L25.8,75.8c-7,0-12.9-5.4-13.4-12.4l-0.4-5.7c-0.5-7.4,5.1-13.7,12.4-14.2c0.3,0,0.6,0,1,0h0.8
		c7.4,0,13.4,6,13.4,13.4c0,0.3,0,0.6,0,0.9l-0.4,5.7C38.7,70.4,32.9,75.8,25.8,75.8z"/>
	<path class="st1" d="M43.9,55.1L43.9,55.1C43,46,35.4,39.1,26.2,39.1h-0.8c-9.8,0-17.7,7.9-17.7,17.7c0,0.4,0,0.8,0,1.2l0.3,5.7
		c0.7,9.3,8.4,16.5,17.7,16.5c0.7,0,1.5,0,2.2-0.1c2.6-0.3,5.2-1.3,7.4-2.7c3.1-2,5.4-4.9,6.8-8.3c0.7-1.7,1.1-3.5,1.2-5.3l0.4-5.6
		C44,57,43.9,56.1,43.9,55.1z M35.2,57.4L34.8,63c-0.4,5-4.8,8.7-9.7,8.3c-4.4-0.4-7.9-3.9-8.3-8.3l-0.4-5.6c-0.4-5,3.4-9.3,8.4-9.6
		c0.2,0,0.4,0,0.7,0h0.8c5,0,9,4.1,9,9C35.3,57,35.2,57.2,35.2,57.4L35.2,57.4z"/>
	<path class="st0" d="M52.3,108.2H-0.5c0,0-0.3-18.7,5.1-23.1c3.6-3.1,13.6-4.3,23.2-4c3,0.1,6,0.3,9,0.8c-0.7,1.3-1.2,2.7-1.6,4.1
		c-1.4,5.9-2.2,11.9-2.4,18h19.5C52.3,106.4,52.3,108.2,52.3,108.2z"/>
	<path class="st1" d="M56.7,103.8H3.8c0.3-6.9,1.6-14,3.5-15.5c2.4-2,9.9-3,17.6-3h1.4c2.9,0,5.9,0.2,8.8,0.6
		c0.4-1.4,0.9-2.8,1.6-4.1c0.4-0.7,0.9-1.3,1.4-1.8c0.9-0.7,2-1.3,3.1-1.7c-1.8-0.4-3.7-0.7-5.8-1c-2.1-0.3-3.8-0.4-5.8-0.5
		c-4.6-0.3-9.2-0.1-13.7,0.4c-6.1,0.7-11.4,2.2-14.3,4.6c-6.4,5.4-6.7,21.7-6.6,26.5v4.3h61.3l0.2-4.1c0-0.9,0.1-2.2,0.1-3.7
		C56.7,104.5,56.7,104.1,56.7,103.8z"/>
	<path class="st0" d="M103,75.8L103,75.8c-7,0-12.9-5.4-13.3-12.4l-0.4-5.7c-0.5-7.4,5-13.8,12.4-14.3c0.3,0,0.6,0,0.9,0h0.8
		c7.4,0,13.4,6,13.4,13.4c0,0.3,0,0.6,0,0.9l-0.4,5.7C115.9,70.4,110,75.8,103,75.8z"/>
	<path class="st1" d="M116.3,44.7c-3.4-3.6-8.1-5.6-13-5.6h-0.8c-9.1,0-16.7,6.9-17.6,15.9c-0.1,1-0.1,2,0,3l0.4,5.6
		C85.7,69,88.6,74,93.1,77c2.4,1.6,5.2,2.6,8.1,2.9c0.6,0.1,1.2,0.1,1.8,0.1c9.3,0,17-7.2,17.7-16.5l0.4-5.6
		C121.3,53,119.6,48.3,116.3,44.7z M96,50.6c1.7-1.8,4.1-2.9,6.6-2.9h0.8c5,0,9,4.1,9,9c0,0.2,0,0.4,0,0.6l-0.3,5.7
		c-0.3,5-4.7,8.7-9.6,8.4c-4.5-0.3-8.1-3.9-8.4-8.4l-0.4-5.6C93.5,54.9,94.3,52.4,96,50.6z"/>
	<path class="st0" d="M129.4,108.2H76.5c0,0,0-1.8,0.1-4.3h19.5c0.1-6.1-0.6-12.2-2.1-18.1c-0.4-1.4-1-2.8-1.8-4.1
		c3.1-0.4,6.1-0.6,9.2-0.6c9.3,0,18.9,1.4,22.8,4.1C130.3,89.1,129.4,108.2,129.4,108.2z"/>
	<path class="st1" d="M126.8,81.4c-2.9-2-8.1-3.4-14.2-4.2c-4.4-0.5-8.8-0.7-13.3-0.6c-2.1,0-4.2,0.2-6.3,0.4
		c-2.2,0.2-4.3,0.6-6.4,1.1c1.5,0.4,3,1.1,4.3,2c0.5,0.4,0.9,0.8,1.3,1.4c0.8,1.3,1.4,2.7,1.8,4.2c2.6-0.3,5.3-0.4,7.9-0.4h0.9
		c7.9,0,15.9,1.2,19,3.3c1.8,1.2,3.1,7.9,3.2,15.3H72.3c0,1.8,0,3.4,0,4.3v4.3h61.2l0.2-4.1c0-0.9,0.1-2.2,0.1-3.8
		C133.8,97.6,132.9,85.6,126.8,81.4z"/>
	<path class="st2" d="M81.4,22.8c-4.3-4.6-10.2-7.2-16.5-7.2h-1.1c-12.4,0-22.6,10-22.6,22.5c0,0.6,0,1.1,0.1,1.7l0.5,7.7
		c0,0.5,0.1,1,0.2,1.4c0.3,2.2,0.9,4.2,1.8,6.2l0,0c2.5,5.5,7.1,9.7,12.7,11.8c4.9,1.9,10.3,1.9,15.3,0.1
		c5.9-2.1,10.6-6.5,13.1-12.1c0.9-1.9,1.4-3.9,1.7-6c0.1-0.5,0.1-1.1,0.2-1.6l0.5-7.7C87.8,33.5,85.6,27.3,81.4,22.8z M78.8,39.1
		l-0.5,7.7c-0.5,7.6-7.1,13.4-14.7,13c-7-0.4-12.5-6-13-13L50,39.1c-0.5-7.7,5.3-14.3,12.9-14.8c0.3,0,0.6,0,0.9,0h1.1
		c7.7,0,13.9,6.3,13.9,13.9C78.8,38.5,78.8,38.8,78.8,39.1L78.8,39.1z"/>
	<path class="st2" d="M102.9,85.3c-0.4-1.5-0.8-2.9-1.4-4.3l-0.4-0.9c-0.5-1.2-1.1-2.3-1.8-3.4c-0.4-0.7-0.9-1.3-1.4-1.8
		c-0.6-0.7-1.3-1.3-2-1.8c-0.9-0.6-1.8-1-2.7-1.4c-2.1-0.9-4.3-1.6-6.5-2.2c-4.9-1.2-9.9-1.9-14.9-2.2c-5.1-0.4-10.2-0.5-15.2-0.2
		c-4.8,0.2-9.6,0.9-14.3,2c-2.2,0.5-4.3,1.3-6.3,2.2c-1.2,0.6-2.4,1.3-3.5,2.2c-0.5,0.4-1,0.9-1.4,1.4c-0.5,0.6-1,1.3-1.4,2
		c-0.6,1-1.1,2.1-1.5,3.2c-0.1,0.3-0.3,0.7-0.4,1c-0.5,1.4-1,2.9-1.3,4.3c-1.4,6.1-2.1,12.3-2.3,18.6c0,1.9,0,3.5,0,4.3l0,0v4.3
		h80.4l0.2-4.1c0-0.1,0-0.1,0-0.2c0-0.9,0.1-2.4,0.1-4.3C104.9,97.6,104.3,91.4,102.9,85.3z M32.8,103.8c0.1-6.1,0.9-12.1,2.4-18
		c0.4-1.4,0.9-2.8,1.6-4.1c0.4-0.7,0.9-1.3,1.4-1.8c0.9-0.7,2-1.3,3.1-1.7c4.9-1.9,13.4-2.8,22.1-2.8s17.6,0.9,23.4,2.8
		c1.5,0.4,3,1.1,4.3,2c0.5,0.4,0.9,0.8,1.3,1.4c0.8,1.3,1.4,2.7,1.8,4.2c1.5,5.9,2.2,12,2.1,18.1H32.8z"/>
</g>
</svg>
